<svg xmlns="http://www.w3.org/2000/svg" version="1.1" xmlns:xlink="http://www.w3.org/1999/xlink" xmlns:svgjs="http://svgjs.dev/svgjs" width="100%" height="100%" viewBox="0 0 1000 600"><rect width="1000" height="600" x="0" y="0" fill="#1a1a1a"/><g><circle r="166.66666666666666" cx="519.2284952799479" cy="541.450493195994" fill="#e6e6e6" transform="matrix(0.3545479230667898,0,0,0.3545479230667898,0,108.02983658810236)"/><path d="M526.5350349842313 616.4505129201184L511.9517020924138 616.4505129201184L511.9517020924138 470.73623161738726Q508.7374164754418 470.73623161738726 498.67789297047386 472.0159934834039L498.67789297047386 472.0159934834039L456.6540847189509 477.37313617835724L456.6540847189509 466.45051746142457L581.8028904538335 466.45051746142457L581.8028904538335 477.37313617835724L539.8088441061713 472.0159934834039Q529.7493206012033 470.73623161738726 526.5350349842313 470.73623161738726L526.5350349842313 470.73623161738726L526.5350349842313 616.4505129201184Z " fill="#039be5" transform="matrix(0.3545479230667898,0,0,0.3545479230667898,0,108.02983658810236)"/><path d="M836.416585062371 613.5603955319391L822.3952186817169 613.5603955319391L822.3952186817169 473.4611918591175Q819.3047950712871 473.4611918591175 809.6329137719787 474.69163829660346L809.6329137719787 474.69163829660346L769.228486568951 479.84234431398664L769.228486568951 469.34062704521097L889.5547021417071 469.34062704521097L889.5547021417071 479.84234431398664L849.1788899721093 474.69163829660346Q839.5070086728009 473.4611918591175 836.416585062371 473.4611918591175L836.416585062371 473.4611918591175L836.416585062371 613.5603955319391ZM922.9484461544079 613.5603955319391L922.9484461544079 469.34062704521097L950.5333383808376 469.34062704521097Q972.3952239212861 469.34062704521097 984.4421529952766 478.49743774278096Q996.4890820692672 487.68286347378097 996.4890820692672 504.165122729407L996.4890820692672 504.165122729407Q996.4890820692672 516.9274276391452 988.9633282772019 525.3688625009677Q981.4375744851365 533.8389123962199 967.2445179039029 536.7004157392105L967.2445179039029 536.7004157392105L967.2445179039029 537.9594772101264Q980.8366587831084 540.6206753191077 989.4783988789401 550.7217821198647Q998.1487540082018 560.8228889206216 1002.4696240561176 575.645476237313L1002.4696240561176 575.645476237313Q1006.3898836360148 589.2376171165185 1010.1956830821923 596.763370908584Q1014.0014825283698 604.2891247006494 1018.6371179440147 607.5798535450886Q1023.2727533596595 610.8705823895277 1029.6539058145286 612.329949094453L1029.6539058145286 612.329949094453L1029.6539058145286 613.5603955319391L1021.2124709527063 613.5603955319391Q1012.1415053554259 613.5603955319391 1006.2754235022952 610.2696666874997Q1000.4093416491644 606.9789378430605 996.2887768352579 599.1384186832663Q992.1682120213513 591.2978995234719 988.4482576754635 577.5054534102569L988.4482576754635 577.5054534102569Q982.4677156886131 556.2730986052666 972.5955291552954 547.4310532754255Q962.6947275885478 538.5603929121544 948.4730559738844 538.5603929121544L948.4730559738844 538.5603929121544L947.2426095363984 538.5603929121544L947.2426095363984 534.8690535996966L948.4730559738844 534.8690535996966Q981.6664947525757 534.8690535996966 981.6664947525757 504.3654279634164L981.6664947525757 504.3654279634164Q981.6664947525757 474.29102782858473 950.5333383808376 474.29102782858473L950.5333383808376 474.29102782858473L936.941197501632 474.29102782858473L936.941197501632 613.5603955319391L922.9484461544079 613.5603955319391ZM1055.0068254334255 613.5603955319391L1039.9553178492947 613.5603955319391L1095.3826376030236 469.34062704521097L1108.1449425127616 469.34062704521097L1163.5722622664903 613.5603955319391L1148.5493697157895 613.5603955319391L1122.9961448628833 545.9716865705002L1076.2105652049863 545.9716865705002L1055.0068254334255 613.5603955319391ZM1098.0724507454347 480.04264954799595L1096.8133892745188 480.04264954799595L1077.6699319099116 541.0499008205563L1121.1361676899392 541.0499008205563L1098.0724507454347 480.04264954799595ZM1230.96066599392 616.4505139083597L1165.4322394394344 469.34062704521097L1180.8843574915836 469.34062704521097L1237.1415132147795 597.4787467443316L1238.3719596522656 597.4787467443316L1285.5581497781814 469.34062704521097L1301.0102678303306 469.34062704521097L1235.481841275845 616.4505139083597L1230.96066599392 616.4505139083597ZM1396.5844794862178 613.5603955319391L1333.1449503721155 613.5603955319391L1333.1449503721155 469.34062704521097L1395.9835637841898 469.34062704521097L1395.9835637841898 479.4417338459679L1359.9286216625078 474.69163829660346Q1350.457045597209 473.4611918591175 1347.1377017193397 473.4611918591175L1347.1377017193397 473.4611918591175L1347.1377017193397 536.2998052711919Q1349.8275148617508 536.2998052711919 1359.9286216625078 535.6702745357338L1359.9286216625078 535.6702745357338L1393.7229761432272 533.6099921287807L1393.7229761432272 543.1101832275095L1359.9286216625078 541.0499008205563Q1349.8275148617508 540.4203700850983 1347.1377017193397 540.4203700850983L1347.1377017193397 540.4203700850983L1347.1377017193397 609.4398307180325Q1350.8576560652275 609.4398307180325 1360.1289268965172 608.2093842805466L1360.1289268965172 608.2093842805466L1396.5844794862178 603.4592887311821L1396.5844794862178 613.5603955319391ZM1439.8504100322361 613.5603955319391L1439.8504100322361 469.34062704521097L1453.8717764128905 469.34062704521097L1453.8717764128905 609.4398307180325Q1457.7920359927875 609.4398307180325 1466.23347085461 608.2093842805466L1466.23347085461 608.2093842805466L1500.4284358033478 603.0586782631633L1500.4284358033478 613.5603955319391L1439.8504100322361 613.5603955319391ZM1629.6253117393753 616.4505139083597L1570.2777324057497 469.34062704521097L1585.32923998988 469.34062704521097L1635.8061589602348 595.4184643373783L1637.036605397721 595.4184643373783L1670.001123908973 513.8370040287153L1652.0594979484217 469.34062704521097L1667.1110055325526 469.34062704521097L1717.387619268898 595.0178538693597L1718.6180657063837 595.0178538693597L1760.224324313468 469.34062704521097L1775.2758318975984 469.34062704521097L1715.9282525639728 616.4505139083597L1711.4070772820473 616.4505139083597L1672.8912422853937 520.647381985033L1634.1464870213003 616.4505139083597L1629.6253117393753 616.4505139083597ZM1821.4318808200378 613.5603955319391L1807.4105144393834 613.5603955319391L1807.4105144393834 469.34062704521097L1821.4318808200378 469.34062704521097L1821.4318808200378 613.5603955319391ZM1921.9564932592984 613.5603955319391L1907.9637419120745 613.5603955319391L1907.9637419120745 473.4611918591175Q1904.8733183016448 473.4611918591175 1895.1728219689062 474.69163829660346L1895.1728219689062 474.69163829660346L1854.7970097993084 479.84234431398664L1854.7970097993084 469.34062704521097L1975.1232253720646 469.34062704521097L1975.1232253720646 479.84234431398664L1934.7474132024668 474.69163829660346Q1925.0469168697286 473.4611918591175 1921.9564932592984 473.4611918591175L1921.9564932592984 473.4611918591175L1921.9564932592984 613.5603955319391ZM2022.5097207319895 613.5603955319391L2008.4883543513356 613.5603955319391L2008.4883543513356 469.34062704521097L2022.5097207319895 469.34062704521097L2022.5097207319895 536.0995000371825L2109.0415818240263 536.0995000371825L2109.0415818240263 469.34062704521097L2123.0629482046807 469.34062704521097L2123.0629482046807 613.5603955319391L2109.0415818240263 613.5603955319391L2109.0415818240263 541.0499008205563L2022.5097207319895 541.0499008205563L2022.5097207319895 613.5603955319391ZM2230.19763336625 555.8724881372477L2230.19763336625 469.34062704521097L2244.190384713474 469.34062704521097L2244.190384713474 556.2730986052666Q2244.190384713474 581.2254077561449 2256.466234054904 595.1323140030793Q2268.7134683629038 609.0392202500138 2290.975964371371 609.0392202500138L2290.975964371371 609.0392202500138Q2304.9687157185954 609.0392202500138 2315.384587887081 603.5737488649017Q2325.771845022137 598.1082774797896 2331.437621641259 588.4363961804813Q2337.10339826038 578.735899847743 2336.7027877923615 566.1739001720141L2336.7027877923615 566.1739001720141L2333.211753713913 469.34062704521097L2347.204505061137 469.34062704521097L2343.7134709826882 566.1739001720141Q2342.883635013221 590.8972890554533 2328.9767287662867 603.6595939651913Q2315.0698225193523 616.4505139083597 2289.316292432436 616.4505139083597L2289.316292432436 616.4505139083597Q2261.5024799385674 616.4505139083597 2245.8500566524085 600.2830200204626Q2230.19763336625 584.0869110991355 2230.19763336625 555.8724881372477L2230.19763336625 555.8724881372477ZM2384.089283152286 609.0392202500138L2384.089283152286 609.0392202500138L2385.3197295897726 596.6775258082944L2386.550176027258 596.6775258082944Q2394.591000421062 603.6595939651913 2404.692107221819 607.5798535450886Q2414.7932140225757 611.5001131249858 2424.6654005558935 611.5001131249858L2424.6654005558935 611.5001131249858Q2438.686766936548 611.5001131249858 2447.328507032379 603.7740540989109Q2455.998862161641 596.0479950728363 2455.998862161641 583.0567698956588L2455.998862161641 583.0567698956588Q2455.998862161641 575.8457814713224 2452.7939784174914 569.6649342504627Q2449.6177097067716 563.484087029603 2442.292261148716 557.1029345747338Q2434.9668125906596 550.7217821198647 2422.204507680922 543.3104884615188L2422.204507680922 543.3104884615188Q2413.3338473176505 538.1597824441358 2405.3216379572764 532.4940058250143Q2397.280813563473 526.8282292058929 2392.13010754609 519.3024754138276Q2386.9794015287066 511.7767216217621 2386.9794015287066 501.27500435298646L2386.9794015287066 501.27500435298646Q2386.9794015287066 485.62258106682765 2398.3109547669496 476.036544867809Q2409.6425080051927 466.4505086687904 2428.1850496677716 466.4505086687904L2428.1850496677716 466.4505086687904Q2436.426179295585 466.4505086687904 2445.897755360884 468.1960257080147Q2455.3693314261827 469.9701577806689 2460.5200374435663 472.6313558896502L2460.5200374435663 472.6313558896502L2459.4898962400894 484.1632143619025L2458.2594498026033 484.1632143619025Q2446.527286096342 471.4009094521642 2428.1850496677716 471.4009094521642L2428.1850496677716 471.4009094521642Q2414.9935192565854 471.4009094521642 2406.9526948627813 478.0968272747623Q2398.911870468978 484.7927450973604 2398.911870468978 496.1242983356033L2398.911870468978 496.1242983356033Q2398.911870468978 504.5657331974257 2403.347200650613 510.6607353179958Q2407.7825308322485 516.7271224051359 2414.7932140225757 521.5630630547901Q2421.803897212903 526.3990037044442 2429.8161065732766 530.9487940197994L2429.8161065732766 530.9487940197994Q2439.0873774045663 536.2998052711919 2447.8435776341175 542.2803472580422Q2456.599777863669 548.2608892448927 2462.265554482791 556.5878639729954Q2467.931331101912 564.9434537345281 2467.931331101912 577.5054534102569L2467.931331101912 577.5054534102569Q2467.931331101912 589.0373118825094 2462.5803198505196 597.7935121120606Q2457.229308599127 606.5497123416119 2447.4429671660987 611.5001131249858Q2437.656625733071 616.4505139083597 2424.6654005558935 616.4505139083597L2424.6654005558935 616.4505139083597Q2416.4242709280807 616.4505139083597 2405.3216379572764 614.3902315014063Q2394.190389953043 612.329949094453 2384.089283152286 609.0392202500138Z " fill="#039be5" transform="matrix(0.3545479230667898,0,0,0.3545479230667898,0,108.02983658810236)"/></g></svg>